#!OML:ASF H:\LiuWeirdWalks\Patient Classification 1\Patient 1\Session 1\male.ASF
:FULLY-SPECIFIED
:DEGREES
782
root -0.862556 17.4855 0.766007 4.15092 8.383 -6.73979
lowerback 16.9965 -1.60446 -1.40935
upperback 1.79462 -2.45336 -1.04884
thorax -7.58939 -1.15344 0.243545
lowerneck -21.0994 0.887407 6.3873
upperneck 20.7971 -0.150943 -2.78206
head 10.1163 0.107768 -2.06505
rclavicle 1.74931e-014 -9.54166e-015
rhumerus -19.3722 -53.6649 18.004
rradius 25.6061
rwrist 9.95947
rhand -19.6907 8.78899
rfingers 7.12502
rthumb 6.63841 -21.087
lclavicle 1.74931e-014 -9.54166e-015
lhumerus -12.6555 33.9589 8.1614
lradius 26.7958
lwrist -7.75525
lhand -13.2121 1.21699
lfingers 7.12502
lthumb 12.8887 30.799
rfemur -5.8461 -13.0911 27.1313
rtibia 41.2193
rfoot -16.7592 -19.5795
rtoes -17.5326
lfemur -36.9266 2.94308 -1.71829
ltibia 32.7487
lfoot -8.27231 9.04965
ltoes -18.0641
783
root -0.808647 17.4735 0.864017 4.0609 8.11261 -6.85131
lowerback 16.9627 -1.51321 -1.55608
upperback 1.84676 -2.36407 -1.11665
thorax -7.51247 -1.10795 0.23167
lowerneck -20.9738 0.905239 6.4075
upperneck 20.6873 -0.156138 -2.6534
head 10.0545 0.121247 -2.02106
rclavicle -7.55382e-015 9.54166e-015
rhumerus -19.2817 -53.5182 17.713
rradius 25.6246
rwrist 9.86171
rhand -19.6441 8.69513
rfingers 7.12502
rthumb 6.68343 -21.1794
lclavicle -7.55382e-015 9.54166e-015
lhumerus -12.6449 34.062 8.16136
lradius 26.7471
lwrist -7.79007
lhand -13.2126 1.23371
lfingers 7.12502
lthumb 12.8882 30.8157
rfemur -5.5418 -13.0622 26.8635
rtibia 41.5403
rfoot -16.4779 -19.1359
rtoes -18.1406
lfemur -36.7384 2.87766 -1.72742
ltibia 32.0483
lfoot -7.97582 9.36232
ltoes -18.1198
784
root -0.75239 17.458 0.96389 3.96172 7.82234 -6.97991
lowerback 16.9216 -1.41972 -1.68234
upperback 1.89321 -2.26741 -1.17923
thorax -7.43859 -1.0595 0.212244
lowerneck -20.8381 0.909419 6.39601
upperneck 20.5911 -0.175792 -2.49709
head 9.99518 0.128991 -1.96444
rclavicle -1.27222e-014 3.18055e-015
rhumerus -19.1757 -53.2939 17.3858
rradius 25.6663
rwrist 9.69127
rhand -19.5522 8.65937
rfingers 7.12502
rthumb 6.77211 -21.2123
lclavicle -1.27222e-014 3.18055e-015
lhumerus -12.6274 34.135 8.14837
lradius 26.708
lwrist -7.80679
lhand -13.2087 1.28008
lfingers 7.12502
lthumb 12.892 30.8619
rfemur -5.2225 -13.0161 26.595
rtibia 41.8657
rfoot -16.2255 -18.6907
rtoes -18.737
lfemur -36.5279 2.76307 -1.68955
ltibia 31.535
lfoot -7.6099 9.40249
ltoes -18.3426
785
root -0.694182 17.4395 1.06619 3.84552 7.51007 -7.11847
lowerback 16.8809 -1.32181 -1.80663
upperback 1.93647 -2.16393 -1.23499
thorax -7.36845 -1.00772 0.19776
lowerneck -20.7144 0.909585 6.37813
upperneck 20.5279 -0.199964 -2.33919
head 9.94979 0.134731 -1.90753
rclavicle 2.98177e-014 1.27222e-014
rhumerus -19.0362 -53.0192 17.0114
rradius 25.7317
rwrist 9.46083
rhand -19.4611 8.49853
rfingers 7.12502
rthumb 6.86009 -21.3703
lclavicle 2.98177e-014 1.27222e-014
lhumerus -12.5999 34.2118 8.12762
lradius 26.6735
lwrist -7.82111
lhand -13.2109 1.34129
lfingers 7.12502
lthumb 12.8898 30.9232
rfemur -4.87308 -12.9478 26.3201
rtibia 42.1886
rfoot -15.9978 -18.2502
rtoes -19.3118
lfemur -36.2864 2.57557 -1.59896
ltibia 31.2244
lfoot -7.09251 9.1477
ltoes -18.6954
786
root -0.63417 17.418 1.17053 3.71464 7.18293 -7.2854
lowerback 16.8452 -1.22283 -1.90897
upperback 1.97158 -2.05415 -1.27736
thorax -7.31043 -0.953254 0.184197
lowerneck -20.6485 0.912014 6.34678
upperneck 20.5745 -0.223945 -2.16951
head 9.95431 0.142675 -1.84594
rclavicle -1.07344e-014 -9.54166e-015
rhumerus -18.8702 -52.7745 16.6273
rradius 25.7861
rwrist 9.30533
rhand -19.3172 8.3821
rfingers 7.12502
rthumb 6.999 -21.4822
lclavicle -1.07344e-014 -9.54166e-015
lhumerus -12.5665 34.2764 8.10058
lradius 26.6485
lwrist -7.81965
lhand -13.2297 1.43919
lfingers 7.12502
lthumb 12.8718 31.0223
rfemur -4.50075 -12.8613 26.0614
rtibia 42.5084
rfoot -15.7888 -17.8139
rtoes -19.8689
lfemur -36.0232 2.31873 -1.43659
ltibia 31.1381
lfoot -6.39666 8.5764
ltoes -19.0295
787
root -0.572506 17.3938 1.27677 3.56331 6.85791 -7.48207
lowerback 16.8108 -1.12847 -1.98629
upperback 2.01339 -1.9445 -1.30544
thorax -7.24645 -0.899485 0.17193
lowerneck -20.6033 0.930428 6.34324
upperneck 20.6541 -0.229745 -2.0267
head 9.97533 0.158558 -1.79633
rclavicle -2.66371e-014 2.8625e-014
rhumerus -18.6768 -52.477 16.2158
rradius 25.8655
rwrist 9.05926
rhand -19.1389 8.215
rfingers 7.12502
rthumb 7.17103 -21.6435
lclavicle -2.66371e-014 2.8625e-014
lhumerus -12.5276 34.3443 8.07224
lradius 26.6373
lwrist -7.79828
lhand -13.2592 1.48789
lfingers 7.12502
lthumb 12.8433 31.0728
rfemur -4.09828 -12.7714 25.8196
rtibia 42.8234
rfoot -15.5973 -17.3692
rtoes -20.4033
lfemur -35.7443 1.98828 -1.2051
ltibia 31.3003
lfoot -5.53422 7.76054
ltoes -19.1889
788
root -0.509477 17.3677 1.38415 3.40633 6.55167 -7.69223
lowerback 16.7793 -1.04447 -2.046
upperback 2.05246 -1.84478 -1.32643
thorax -7.18729 -0.850866 0.159801
lowerneck -20.5703 0.958194 6.36668
upperneck 20.7481 -0.226293 -1.9081
head 10.0041 0.178232 -1.7586
rclavicle 3.97569e-015 6.36111e-015
rhumerus -18.4674 -52.3263 15.8228
rradius 25.9034
rwrist 8.96792
rhand -18.9075 8.13251
rfingers 7.12502
rthumb 7.39443 -21.7183
lclavicle 3.97569e-015 6.36111e-015
lhumerus -12.4878 34.4243 8.04019
lradius 26.6463
lwrist -7.76178
lhand -13.3038 1.55332
lfingers 7.12502
lthumb 12.8004 31.1409
rfemur -3.68569 -12.6852 25.5811
rtibia 43.1392
rfoot -15.4195 -16.9021
rtoes -20.9062
lfemur -35.488 1.5967 -0.939279
ltibia 31.7253
lfoot -4.59574 6.88181
ltoes -19.0858
789
root -0.445368 17.3411 1.49204 3.25351 6.2817 -7.89742
lowerback 16.7499 -0.975744 -2.09887
upperback 2.0913 -1.76383 -1.34694
thorax -7.1296 -0.811487 0.148723
lowerneck -20.5625 0.980446 6.36541
upperneck 20.8816 -0.231761 -1.76215
head 10.0514 0.19592 -1.70883
rclavicle 1.90833e-014 3.02153e-014
rhumerus -18.2545 -52.2267 15.4423
rradius 25.9337
rwrist 8.90078
rhand -18.6655 8.01371
rfingers 7.12502
rthumb 7.62802 -21.8287
lclavicle 1.90833e-014 3.02153e-014
lhumerus -12.4563 34.5197 8.00201
lradius 26.6755
lwrist -7.73877
lhand -13.3593 1.5442
lfingers 7.12502
lthumb 12.7469 31.1351
rfemur -3.27926 -12.6178 25.3279
rtibia 43.4595
rfoot -15.2317 -16.3997
rtoes -21.3946
lfemur -35.2991 1.2065 -0.695641
ltibia 32.4033
lfoot -3.6586 6.08758
ltoes -18.6365
790
root -0.381105 17.3146 1.59953 3.10787 6.06245 -8.09627
lowerback 16.7478 -0.922791 -2.14821
upperback 2.1116 -1.70444 -1.36929
thorax -7.10679 -0.782147 0.139296
lowerneck -20.5187 1.00406 6.38693
upperneck 20.9985 -0.238326 -1.62329
head 10.0863 0.213902 -1.6651
rclavicle 1.43125e-014 1.59028e-014
rhumerus -18.0685 -52.2104 15.1103
rradius 25.9427
rwrist 8.95379
rhand -18.3723 8.02837
rfingers 7.12502
rthumb 7.91099 -21.8036
lclavicle 1.43125e-014 1.59028e-014
lhumerus -12.4186 34.5929 7.96825
lradius 26.7263
lwrist -7.71092
lhand -13.4236 1.53726
lfingers 7.12502
lthumb 12.6849 31.132
rfemur -2.89263 -12.5664 25.0683
rtibia 43.7909
rfoot -15.0264 -15.8655
rtoes -21.8585
lfemur -35.2167 0.867037 -0.498841
ltibia 33.3011
lfoot -2.78032 5.50108
ltoes -17.8253
791
root -0.317921 17.2892 1.70585 2.97307 5.89804 -8.29141
lowerback 16.7772 -0.888422 -2.20032
upperback 2.11713 -1.67161 -1.39469
thorax -7.11681 -0.765137 0.13482
lowerneck -20.4671 1.02001 6.39217
upperneck 21.1031 -0.257696 -1.45346
head 10.115 0.228267 -1.60931
rclavicle 1.98785e-014 5.40694e-014
rhumerus -17.9023 -52.1442 14.7862
rradius 25.9734
rwrist 8.9161
rhand -18.0734 8.04621
rfingers 7.12502
rthumb 8.19945 -21.7747
lclavicle 1.98785e-014 5.40694e-014
lhumerus -12.3891 34.6242 7.92341
lradius 26.7987
lwrist -7.68187
lhand -13.5104 1.5506
lfingers 7.12502
lthumb 12.6012 31.1505
rfemur -2.53737 -12.5166 24.8185
rtibia 44.1365
rfoot -14.7885 -15.312
rtoes -22.2709
lfemur -35.2676 0.634164 -0.363792
ltibia 34.3712
lfoot -2.03988 5.11643
ltoes -16.7309
792
root -0.256551 17.2656 1.81072 2.85773 5.79192 -8.47772
lowerback 16.8259 -0.868498 -2.26332
upperback 2.11698 -1.66088 -1.4246
thorax -7.14306 -0.758316 0.137012
lowerneck -20.4355 1.02535 6.38523
upperneck 21.1921 -0.294736 -1.26323
head 10.1412 0.235733 -1.54663
rclavicle -9.14409e-015 -9.54166e-015
rhumerus -17.7979 -52.1942 14.5303
rradius 25.9854
rwrist 8.98262
rhand -17.7986 8.10299
rfingers 7.12502
rthumb 8.46474 -21.7074
lclavicle -9.14409e-015 -9.54166e-015
lhumerus -12.3545 34.5948 7.88026
lradius 26.8922
lwrist -7.60776
lhand -13.5988 1.54092
lfingers 7.12502
lthumb 12.5159 31.1461
rfemur -2.22968 -12.4604 24.5825
rtibia 44.4999
rfoot -14.518 -14.754
rtoes -22.6205
lfemur -35.4574 0.517714 -0.297506
ltibia 35.5616
lfoot -1.4931 4.89853
ltoes -15.5273
